# xmcd
#
# Track frame offsets: 
#        150
#        3356
#        9767
#        11571
#        22950
#        27657
#        28587
#        34994
#        40181
#        48690
#        53199
#        54528
#        62788
#        65523
#        71123
#
# Disc length: 1225 seconds
#
# Revision: 0
# Processed by: cddbd v1.5.2PL0 Copyright (c) Steve Scherf et al.
# Submitted via: ExactAudioCopy v0.95b3
#
DISCID=c704c70f
DTITLE=The Beatles  - Way Beyond Compare - Episode 23 Home Demo (ca Ju
DTITLE=ly 1963)  FLAC
DYEAR=1900
DGENRE=
TTITLE0=Tammy
TTITLE1=Over The Rainbow
TTITLE2=Instrumental #1
TTITLE3=Instrumental #2
TTITLE4=Michelle
TTITLE5=Instrumental #3
TTITLE6=Instrumental #4
TTITLE7=Instrumental #5
TTITLE8=Three Coins In A Fountain - unknown song fragments
TTITLE9=Rockin' And Rollin' (backing track)
TTITLE10=Rockin' And Rollin' (playback - 2 false starts)
TTITLE11=Rockin' And Rollin' (playback w_overdubs)
TTITLE12=Unknown Song Fragments
TTITLE13=Rockin' And Rollin' (playback w_overdubs)
TTITLE14=Speech (buried by music)
EXTD=
EXTT0=
EXTT1=
EXTT2=
EXTT3=
EXTT4=
EXTT5=
EXTT6=
EXTT7=
EXTT8=
EXTT9=
EXTT10=
EXTT11=
EXTT12=
EXTT13=
EXTT14=
PLAYORDER=
